<?xml version="1.0" standalone="no"?>
<!DOCTYPE svg PUBLIC "-//W3C//DTD SVG 20010904//EN"
 "http://www.w3.org/TR/2001/REC-SVG-20010904/DTD/svg10.dtd">
<svg version="1.0" xmlns="http://www.w3.org/2000/svg"
 width="800.000000pt" height="800.000000pt" viewBox="0 0 800.000000 800.000000"
 preserveAspectRatio="xMidYMid meet">

<g transform="translate(0.000000,800.000000) scale(0.100000,-0.100000)"
fill="#FFFFFF" stroke="none">
<path d="M2145 6248 c-237 -15 -465 -121 -614 -284 -96 -105 -184 -258 -227
-396 l-18 -58 -106 0 -106 0 -29 -147 c-15 -82 -30 -156 -33 -165 -4 -16 5
-18 96 -18 56 0 103 -3 105 -7 3 -5 -75 -397 -173 -873 -97 -476 -180 -882
-184 -902 l-7 -38 303 0 304 0 31 158 c17 86 75 369 128 627 53 259 122 596
153 750 l57 280 230 5 229 5 26 130 c15 72 29 145 33 163 l7 32 -225 0 -224 0
6 33 c16 86 56 206 81 242 15 22 50 53 76 70 46 28 57 30 163 34 128 4 253
-11 327 -40 27 -10 52 -16 55 -13 3 2 18 69 33 147 15 78 30 154 33 169 6 26
3 28 -58 47 -141 43 -306 60 -472 49z"/>
<path d="M475 6208 c-9 -24 -95 -458 -95 -478 0 -20 6 -20 299 -20 277 0 300
1 305 18 7 23 96 471 96 483 0 5 -127 9 -300 9 -231 0 -302 -3 -305 -12z"/>
<path d="M7386 6193 c-9 -48 -126 -627 -132 -657 -6 -28 -7 -28 -58 -22 -151
19 -225 23 -290 15 -279 -35 -569 -241 -783 -556 -146 -215 -229 -424 -254
-639 -22 -186 20 -326 130 -434 79 -78 139 -100 265 -100 265 0 497 104 646
289 21 26 42 42 51 40 14 -4 13 -18 -12 -124 -15 -66 -30 -132 -33 -147 l-5
-28 298 0 299 0 5 28 c10 45 114 550 136 657 11 55 38 188 60 295 212 1032
239 1163 266 1298 l22 112 -303 0 -302 0 -6 -27z"/>
<path d="M3095 5533 c-256 -39 -504 -170 -685 -359 -176 -185 -301 -426 -341
-658 -16 -93 -7 -277 17 -336 67 -168 217 -291 431 -352 69 -20 100 -23 263
-23 171 1 193 3 285 28 121 34 277 107 382 179 264 180 475 502 528 805 40
233 -4 401 -139 531 -76 73 -165 123 -281 158 -80 24 -109 27 -260 29 -93 2
-183 1 -200 -2z"/>
<path d="M4950 5521 c-251 -56 -452 -170 -627 -354 -133 -141 -227 -298 -288
-480 -46 -139 -58 -219 -53 -351 4 -106 6 -115 46 -198 33 -69 55 -98 109
-148 76 -69 183 -126 303 -160 96 -28 325 -38 438 -20 385 61 730 320 912 684
75 149 108 258 122 401 20 193 -23 327 -142 446 -75 75 -178 131 -310 170
-109 31 -388 37 -510 10z"/>
<path d="M336 5493 c-2 -10 -77 -380 -166 -823 -88 -443 -163 -813 -166 -822
-5 -17 14 -18 300 -18 168 0 306 3 306 7 0 3 25 131 56 282 146 722 274 1365
274 1377 0 12 -54 14 -299 14 -277 0 -300 -1 -305 -17z"/>
<path d="M1864 3328 c24 -111 44 -177 77 -263 210 -539 679 -917 1254 -1013
147 -24 531 -23 680 2 419 69 798 233 1109 478 27 21 50 37 51 36 3 -3 50
-134 158 -442 16 -46 22 -55 28 -40 7 17 45 199 194 924 26 124 53 251 60 283
l13 57 -606 0 c-370 0 -602 -4 -596 -9 5 -5 93 -75 197 -154 l187 -145 -57
-49 c-281 -241 -681 -416 -1082 -474 -172 -25 -405 -23 -561 6 -412 75 -829
374 -1026 735 -33 60 -55 90 -67 90 -13 0 -16 -6 -13 -22z"/>
</g>
</svg>
